<svg width="316" height="227" viewBox="0 0 316 227" fill="none" xmlns="http://www.w3.org/2000/svg">
<path d="M265.967 0C266.101 0 266.234 0 266.367 0C266.638 0.162689 266.889 0.367093 267.18 0.488067C281.504 6.42831 295.832 12.3644 310.156 18.3004C311.811 18.9887 313.462 19.6854 315.196 20.4112C315.196 20.7992 315.196 21.1579 315.196 21.5209C315.18 79.2588 315.159 136.997 315.159 194.735C315.159 195.515 314.909 195.911 314.233 196.274C298.454 204.759 282.684 213.265 266.914 221.766C266.655 221.908 266.388 222.033 266.167 222.142C266.067 222.108 266.034 222.096 266.005 222.083C265.976 222.071 265.946 222.054 265.917 222.037C265.888 222.021 265.863 222 265.834 221.983C265.78 221.946 265.721 221.908 265.667 221.871C192.864 168.646 120.056 115.422 47.2488 62.1973C47.1404 62.1181 47.032 62.043 46.9236 61.9637C46.8694 61.9262 46.8194 61.8845 46.7652 61.8428C46.7402 61.8219 46.711 61.8052 46.6818 61.7885C46.6235 61.7552 46.5693 61.7176 46.5109 61.6884C46.4817 61.6717 46.4526 61.655 46.4192 61.6467C46.39 61.6384 46.3525 61.6384 46.3233 61.6384C46.2942 61.6384 46.2608 61.6509 46.2316 61.655C46.2066 61.6759 46.1691 61.6968 46.1607 61.726C46.1316 61.8177 46.0857 61.9137 46.0857 62.0096C46.0649 99.9329 46.044 137.86 46.0273 175.784C46.0273 175.984 46.0607 176.18 46.0815 176.38C46.0857 176.409 46.1066 176.443 46.1274 176.464C46.1482 176.489 46.1816 176.501 46.3233 176.601C61.9812 168.717 77.6933 160.8 93.5846 152.799C83.3712 145.256 73.2869 137.81 63.2027 130.368C63.2235 130.318 63.2485 130.268 63.2694 130.214C87.1272 130.727 110.981 131.24 134.91 131.753C134.93 132.241 134.968 132.633 134.968 133.03C134.972 149.374 134.964 165.718 134.989 182.062C134.989 182.946 134.739 183.413 133.922 183.814C122.428 189.408 110.948 195.035 99.4709 200.667C82.0747 209.202 64.6867 217.749 47.2947 226.292C46.9111 226.48 46.5609 226.739 46.1941 226.964C46.0607 226.964 45.9273 226.964 45.7939 226.964C45.5354 226.73 45.3103 226.443 45.0185 226.271C30.3153 217.611 15.6079 208.964 0.900449 200.32C0.621141 200.158 0.300151 200.07 0 199.945C0 142.57 0 85.1949 0 27.8199C0.37102 27.7156 0.76705 27.6697 1.10472 27.5028C4.58981 25.7591 8.06239 23.9987 11.5391 22.2384C22.6531 16.6193 33.7753 11.0128 44.8726 5.3604C45.7355 4.92239 46.3025 4.95994 47.0904 5.52726C70.1562 22.0882 93.247 38.6199 116.329 55.16C139.604 71.8336 162.865 88.5196 186.148 105.185C207.584 120.528 229.04 135.85 250.484 151.184C255.391 154.692 260.294 158.209 265.204 161.713C265.475 161.909 265.713 162.243 266.13 162.143C266.342 159.999 266.192 39.6336 265.967 38.8452C265.655 38.9495 265.342 39.0412 265.038 39.1622C261.048 40.7391 257.029 42.2616 253.073 43.9136C225.247 55.5438 197.433 67.199 169.615 78.8459C169.319 78.971 169.014 79.0753 168.714 79.1879C168.885 78.8125 169.118 78.5372 169.369 78.2827C173.329 74.1821 177.293 70.0857 181.258 65.9893C199.221 47.4177 217.184 28.8461 235.139 10.2661C235.614 9.77387 236.136 9.44015 236.798 9.23574C246.236 6.31151 255.666 3.36642 265.096 0.417152C265.4 0.317035 265.68 0.13766 265.967 0Z" fill="#2196f3"/>
</svg>
